<svg width="512" height="512" viewBox="0 0 512 512" fill="none" xmlns="http://www.w3.org/2000/svg">
<path d="M72 136C107.288 136 136 107.288 136 72C136 61.952 133.608 52.472 129.456 43.992C138.28 31.608 152.64 24 168 24C190.72 24 210.224 40.512 214.392 62.648C212.872 63.488 211.392 64.392 209.96 65.384C200.168 59.408 188.872 56 177.368 56H176V72H177.368C184.536 72 191.608 73.768 198.008 76.92C197.344 77.792 196.64 78.608 196.024 79.528L193.336 83.56L206.648 92.432L209.336 88.4C216.192 78.136 227.656 72 240 72C248.824 72 256 79.176 256 88C256 96.824 248.824 104 240 104H184C175.176 104 168 96.824 168 88H152C152 105.648 166.352 120 184 120H384C401.648 120 416 105.648 416 88C416 70.352 401.648 56 384 56C380.216 56 376.52 56.48 372.904 57.256C363.632 28.272 336.568 8 305.464 8C277.072 8 251.496 24.856 240.312 50.952L238.096 56.12C235.248 56.224 232.448 56.56 229.696 57.104C223.136 28.768 197.512 8 168 8C149.504 8 132.096 16.272 120.176 30.008C108.44 16.552 91.216 8 72 8C36.712 8 8 36.712 8 72C8 107.288 36.712 136 72 136ZM305.464 24C329.84 24 350.872 40.136 357.792 63.016C356.488 63.76 355.192 64.52 353.96 65.376C344.16 59.408 332.872 56 321.368 56H320V72H321.368C328.528 72 335.608 73.768 342.008 76.92C341.344 77.792 340.64 78.608 340.024 79.528L337.336 83.56L350.648 92.432L353.336 88.4C360.192 78.136 371.656 72 384 72C392.824 72 400 79.176 400 88C400 96.824 392.824 104 384 104H267.552C270.304 99.272 272 93.856 272 88C272 75.432 264.656 64.648 254.096 59.416L255.024 57.256C263.68 37.056 283.48 24 305.464 24ZM72 24C98.472 24 120 45.528 120 72C120 98.472 98.472 120 72 120C45.528 120 24 98.472 24 72C24 45.528 45.528 24 72 24Z" fill="url(#paint0_linear_159_3566)"/>
<path d="M456 296V260L488 236V216H472V228L456 240V200H440V256L424 244V232H408V252L440 276V296H360V244L392 220V200H376V212L360 224V187.312L373.656 173.656L362.344 162.344L344 180.688V240L328 228V216H312V236L344 260V296H232V285.768L235.968 284.448C262.304 275.664 280 251.12 280 223.36C280 206.168 273.304 189.992 261.144 177.832L224 140.688L193.4 171.288C190.28 164.872 186.232 158.92 181.144 153.824L144 116.688L106.856 153.832C94.696 165.992 88 182.168 88 199.36C88 227.12 105.696 251.664 132.024 260.44L136 261.76V296H5.75195L9.67195 311.672C37.984 424.912 139.28 504 256 504C372.72 504 474.016 424.912 502.328 311.672L506.248 296H456ZM237.088 346.064L246.248 359.8C247.392 361.512 248 363.512 248 365.576C248 371.328 243.328 376 237.576 376H114.424C108.672 376 104 371.328 104 365.576C104 363.512 104.608 361.512 105.752 359.792L114.92 346.048C118.24 341.056 120 335.24 120 329.24C120 323.08 118.032 317.04 114.552 312H237.448C233.968 317.048 232 323.08 232 329.24C232 335.24 233.76 341.056 237.088 346.064ZM224 163.312L249.832 189.144C258.968 198.28 264 210.44 264 223.36C264 243.816 251.168 261.896 232 268.808V259.32L253.656 237.664L242.344 226.352L232 236.688V219.312L245.656 205.656L234.344 194.344L216 212.688V268.8C196.832 261.896 184 243.824 184 223.36C184 210.44 189.032 198.28 198.168 189.144L224 163.312ZM104 199.36C104 186.44 109.032 174.28 118.168 165.144L144 139.312L169.832 165.144C175.16 170.472 179.056 176.992 181.424 184.112C172.752 195.312 168 208.96 168 223.36C168 227.072 168.368 230.704 168.976 234.272C164.104 238.92 158.344 242.544 152 244.824V194.424L166.656 172.44L153.344 163.568L142.76 179.448L133.656 170.344L122.344 181.656L136 195.312V212.688L125.656 202.344L114.344 213.656L136 235.312V244.8C116.832 237.896 104 219.824 104 199.36ZM152 261.768L155.968 260.448C162.568 258.248 168.68 254.88 174.216 250.72C181.544 266.304 194.904 278.736 212.024 284.44L216 285.76V296H152V261.768ZM92.688 312L99.808 319.12C102.472 321.784 104 325.48 104 329.24C104 332.072 103.168 334.824 101.6 337.184L92.44 350.92C89.536 355.272 88 360.344 88 365.576C88 380.152 99.848 392 114.424 392H237.584C252.152 392 264 380.152 264 365.576C264 360.344 262.464 355.272 259.56 350.92L250.4 337.192C248.832 334.832 248 332.08 248 329.24C248 325.472 249.528 321.776 252.192 319.112L259.312 311.992H314C312.72 315.072 312 318.44 312 321.968C312 333.904 320.088 344.272 331.672 347.16L365.432 355.6C371.656 357.168 376 362.728 376 369.144C376 374.88 372.56 379.968 367.232 382.088L317.032 402.176C304.256 407.288 296 419.48 296 433.232C296 445.2 302.456 456.336 312.856 462.272L334.576 474.68C310.544 483.072 284.856 487.648 258.28 487.904L217.592 460.776C216.6 460.12 216 459.008 216 457.808C216 456.056 217.256 454.576 218.992 454.288L246.472 449.712C256.624 448.008 264 439.296 264 428.992C264 417.416 254.584 408 243.008 408H78.168C54.256 381.064 36.12 348.56 26.28 312H92.688ZM208.712 474.096L226.552 485.992C175.92 479.72 129.712 457.608 93.696 424H243.008C245.76 424 248 426.24 248 428.992C248 431.448 246.248 433.512 243.832 433.92L216.36 438.496C206.88 440.08 200 448.192 200 457.808C200 464.36 203.256 470.456 208.712 474.096ZM353.536 467.096L320.792 448.384C315.368 445.28 312 439.48 312 433.232C312 426.056 316.312 419.696 322.976 417.032L373.176 396.944C384.608 392.376 392 381.464 392 369.144C392 355.376 382.672 343.432 369.32 340.088L335.56 331.648C331.104 330.528 328 326.552 328 321.968C328 316.472 332.472 312 337.968 312H485.712C466.704 382.624 417.192 438.512 353.536 467.096Z" fill="url(#paint1_linear_159_3566)"/>
<path d="M296 136H312V152H296V136Z" fill="url(#paint2_linear_159_3566)"/>
<path d="M312 168H328V184H312V168Z" fill="url(#paint3_linear_159_3566)"/>
<path d="M344 136H360V152H344V136Z" fill="url(#paint4_linear_159_3566)"/>
<path d="M376 152H392V168H376V152Z" fill="url(#paint5_linear_159_3566)"/>
<path d="M408 184H424V200H408V184Z" fill="url(#paint6_linear_159_3566)"/>
<path d="M408 136H424V152H408V136Z" fill="url(#paint7_linear_159_3566)"/>
<defs>
<linearGradient id="paint0_linear_159_3566" x1="-57.2955" y1="122.189" x2="488.621" y2="-2.60791" gradientUnits="userSpaceOnUse">
<stop stop-color="#1EBEA5"/>
<stop offset="0.247103" stop-color="#00B5C4"/>
<stop offset="0.50775" stop-color="#00A8E6"/>
<stop offset="0.72982" stop-color="#0096FD"/>
<stop offset="0.956406" stop-color="#157AFB"/>
</linearGradient>
<linearGradient id="paint1_linear_159_3566" x1="-74.3464" y1="462.211" x2="624.329" y2="397.46" gradientUnits="userSpaceOnUse">
<stop stop-color="#1EBEA5"/>
<stop offset="0.247103" stop-color="#00B5C4"/>
<stop offset="0.50775" stop-color="#00A8E6"/>
<stop offset="0.72982" stop-color="#0096FD"/>
<stop offset="0.956406" stop-color="#157AFB"/>
</linearGradient>
<linearGradient id="paint2_linear_159_3566" x1="293.439" y1="150.274" x2="315.851" y2="148.666" gradientUnits="userSpaceOnUse">
<stop stop-color="#1EBEA5"/>
<stop offset="0.247103" stop-color="#00B5C4"/>
<stop offset="0.50775" stop-color="#00A8E6"/>
<stop offset="0.72982" stop-color="#0096FD"/>
<stop offset="0.956406" stop-color="#157AFB"/>
</linearGradient>
<linearGradient id="paint3_linear_159_3566" x1="309.439" y1="182.274" x2="331.851" y2="180.666" gradientUnits="userSpaceOnUse">
<stop stop-color="#1EBEA5"/>
<stop offset="0.247103" stop-color="#00B5C4"/>
<stop offset="0.50775" stop-color="#00A8E6"/>
<stop offset="0.72982" stop-color="#0096FD"/>
<stop offset="0.956406" stop-color="#157AFB"/>
</linearGradient>
<linearGradient id="paint4_linear_159_3566" x1="341.439" y1="150.274" x2="363.851" y2="148.666" gradientUnits="userSpaceOnUse">
<stop stop-color="#1EBEA5"/>
<stop offset="0.247103" stop-color="#00B5C4"/>
<stop offset="0.50775" stop-color="#00A8E6"/>
<stop offset="0.72982" stop-color="#0096FD"/>
<stop offset="0.956406" stop-color="#157AFB"/>
</linearGradient>
<linearGradient id="paint5_linear_159_3566" x1="373.439" y1="166.274" x2="395.851" y2="164.666" gradientUnits="userSpaceOnUse">
<stop stop-color="#1EBEA5"/>
<stop offset="0.247103" stop-color="#00B5C4"/>
<stop offset="0.50775" stop-color="#00A8E6"/>
<stop offset="0.72982" stop-color="#0096FD"/>
<stop offset="0.956406" stop-color="#157AFB"/>
</linearGradient>
<linearGradient id="paint6_linear_159_3566" x1="405.439" y1="198.274" x2="427.851" y2="196.666" gradientUnits="userSpaceOnUse">
<stop stop-color="#1EBEA5"/>
<stop offset="0.247103" stop-color="#00B5C4"/>
<stop offset="0.50775" stop-color="#00A8E6"/>
<stop offset="0.72982" stop-color="#0096FD"/>
<stop offset="0.956406" stop-color="#157AFB"/>
</linearGradient>
<linearGradient id="paint7_linear_159_3566" x1="405.439" y1="150.274" x2="427.851" y2="148.666" gradientUnits="userSpaceOnUse">
<stop stop-color="#1EBEA5"/>
<stop offset="0.247103" stop-color="#00B5C4"/>
<stop offset="0.50775" stop-color="#00A8E6"/>
<stop offset="0.72982" stop-color="#0096FD"/>
<stop offset="0.956406" stop-color="#157AFB"/>
</linearGradient>
</defs>
</svg>
