<svg id="Gradient" viewBox="0 0 24 24" xmlns="http://www.w3.org/2000/svg" xmlns:xlink="http://www.w3.org/1999/xlink"><linearGradient id="linear-gradient" gradientUnits="userSpaceOnUse" x1="4.4" x2="20.1" y1="4.4" y2="20.1"><stop offset="0" stop-color="#f9b4ae"/><stop offset=".5" stop-color="#ec458d"/><stop offset="1" stop-color="#474ed7"/></linearGradient><path d="m22.75 12c0-4.27-2.53-8.14-6.45-9.85-.38-.17-.82 0-.99.39-.17.38 0 .82.39.99 3.37 1.47 5.55 4.8 5.55 8.47 0 2.11-.72 4.04-1.91 5.6-.11-.02-.21-.04-.33-.04-.83 0-1.5.67-1.5 1.5 0 .11.01.21.04.32-1.55 1.17-3.47 1.87-5.55 1.87-5.1 0-9.25-4.15-9.25-9.25s3.75-8.84 8.5-9.22v2.52c-1.39.16-2.7.74-3.75 1.68-1.43 1.27-2.25 3.1-2.25 5.02 0 1.34.4 2.59 1.07 3.64-.07.17-.1.35-.1.54 0 .83.67 1.5 1.5 1.5.18 0 .34-.04.5-.09 1.08.73 2.38 1.16 3.78 1.16 3.72 0 6.75-3.03 6.75-6.75 0-1.92-.82-3.75-2.25-5.02-.31-.27-.78-.25-1.06.06-.27.31-.25.78.06 1.06 1.11.98 1.75 2.4 1.75 3.9 0 2.89-2.36 5.25-5.25 5.25-1.03 0-1.99-.31-2.8-.83.01-.08.02-.16.02-.24 0-.83-.67-1.5-1.5-1.5-.07 0-.13.01-.2.02-.48-.79-.77-1.71-.77-2.7 0-1.49.64-2.92 1.75-3.9.77-.7 1.73-1.13 2.75-1.28v2.55c-1.15.33-2 1.38-2 2.63 0 1.52 1.23 2.75 2.75 2.75s2.75-1.23 2.75-2.75c0-1.25-.85-2.3-2-2.63v-7.37c0-.41-.34-.75-.75-.75-5.93 0-10.75 4.82-10.75 10.75s4.82 10.75 10.75 10.75c2.48 0 4.75-.85 6.57-2.26.14.04.29.08.45.08.83 0 1.5-.67 1.5-1.5 0-.15-.03-.3-.07-.43 1.44-1.83 2.3-4.13 2.3-6.63zm-9.5 0c0 .69-.56 1.25-1.25 1.25s-1.25-.56-1.25-1.25.56-1.25 1.25-1.25 1.25.56 1.25 1.25z" fill="url(#linear-gradient)"/></svg>