<svg id="Gradient" viewBox="0 0 24 24" xmlns="http://www.w3.org/2000/svg" xmlns:xlink="http://www.w3.org/1999/xlink"><linearGradient id="linear-gradient" gradientUnits="userSpaceOnUse" x1="3.15" x2="18.99" y1="6.73" y2="22.57"><stop offset="0" stop-color="#f9b4ae"/><stop offset=".5" stop-color="#ec458d"/><stop offset="1" stop-color="#474ed7"/></linearGradient><path d="m18.5 16.75h-11.5c-3.17 0-5.75-2.58-5.75-5.75 0-2.6 1.75-4.85 4.22-5.53.68-2.47 2.93-4.22 5.53-4.22 1.73 0 3.33.76 4.43 2.1 2.47.44 4.3 2.58 4.32 5.1 1.75.54 3 2.17 3 4.05 0 2.34-1.91 4.25-4.25 4.25zm-7.5-14c-2.05 0-3.8 1.46-4.17 3.48-.06.31-.3.55-.6.6-2.01.37-3.48 2.12-3.48 4.17 0 2.34 1.91 4.25 4.25 4.25h11.5c1.52 0 2.75-1.23 2.75-2.75 0-1.37-1.03-2.54-2.4-2.71-.41-.05-.7-.42-.65-.83l.02-.15c.01-.1.03-.2.03-.3 0-1.89-1.43-3.48-3.32-3.7-.21-.02-.39-.13-.52-.3-.82-1.11-2.06-1.75-3.42-1.75zm8.17 19.59 1-2c.19-.37.04-.82-.34-1.01-.37-.18-.82-.03-1.01.34l-1 2c-.19.37-.04.82.34 1.01.11.05.22.08.33.08.28 0 .54-.15.67-.41zm-4 0 1-2c.19-.37.04-.82-.34-1.01-.37-.18-.82-.03-1.01.34l-1 2c-.19.37-.04.82.34 1.01.11.05.22.08.33.08.28 0 .54-.15.67-.41zm-4 0 1-2c.19-.37.04-.82-.34-1.01-.37-.18-.82-.03-1.01.34l-1 2c-.19.37-.04.82.34 1.01.11.05.22.08.33.08.28 0 .54-.15.67-.41zm-4 0 1-2c.19-.37.04-.82-.34-1.01-.37-.18-.82-.03-1.01.34l-1 2c-.19.37-.04.82.34 1.01.11.05.22.08.33.08.28 0 .54-.15.67-.41zm-4 0 1-2c.19-.37.04-.82-.34-1.01-.37-.18-.82-.03-1.01.34l-1 2c-.19.37-.04.82.34 1.01.11.05.22.08.33.08.28 0 .54-.15.67-.41z" fill="url(#linear-gradient)"/></svg>