<svg id="Gradient" viewBox="0 0 24 24" xmlns="http://www.w3.org/2000/svg" xmlns:xlink="http://www.w3.org/1999/xlink"><linearGradient id="linear-gradient" gradientUnits="userSpaceOnUse" x1="4.66" x2="19.34" y1="4.66" y2="19.34"><stop offset="0" stop-color="#f9b4ae"/><stop offset=".5" stop-color="#ec458d"/><stop offset="1" stop-color="#474ed7"/></linearGradient><path d="m10.77 22.63c-.06 0-.12 0-.18-.01-4.3-.58-6.66-3.12-6.65-7.15 0-2.32.59-4.16 1.83-5.69-.99.44-1.59 1.01-2.14 1.73-.35.46-.95.63-1.48.41s-.84-.75-.76-1.33c.58-4.29 3.11-6.65 7.13-6.65h.02c2.32 0 4.16.59 5.69 1.83-.44-.99-1.01-1.59-1.73-2.14-.46-.35-.63-.95-.41-1.48s.75-.84 1.33-.76c4.3.58 6.66 3.12 6.65 7.15 0 2.32-.59 4.16-1.83 5.69 1-.44 1.59-1.01 2.14-1.73.35-.46.95-.63 1.48-.41s.84.75.76 1.33c-.58 4.29-3.11 6.66-7.13 6.66h-.02c-2.32 0-4.16-.59-5.69-1.83.44.99 1.01 1.59 1.73 2.14.46.35.63.95.41 1.48-.2.48-.65.77-1.15.77zm-2.07-15.14c.31 0 .59.19.7.49.12.33 0 .71-.3.9-2.55 1.61-3.65 3.58-3.66 6.6 0 2.99 1.49 4.83 4.47 5.5-1.31-1.25-1.99-2.86-2.41-5.56-.05-.35.15-.69.48-.82.33-.12.71 0 .9.3 1.61 2.55 3.58 3.65 6.6 3.66h.02c2.98 0 4.82-1.5 5.48-4.47-1.25 1.31-2.86 1.99-5.56 2.41-.35.05-.69-.15-.82-.48-.12-.33 0-.71.3-.9 2.55-1.61 3.65-3.58 3.66-6.6 0-2.99-1.49-4.83-4.46-5.5 1.31 1.25 1.99 2.86 2.41 5.56.05.35-.15.69-.48.82-.33.12-.71 0-.9-.3-1.61-2.55-3.58-3.65-6.6-3.66h-.02c-2.98 0-4.82 1.5-5.48 4.47 1.25-1.31 2.86-1.99 5.56-2.41h.12zm3.3 7.26c-1.52 0-2.75-1.23-2.75-2.75s1.23-2.75 2.75-2.75 2.75 1.23 2.75 2.75-1.23 2.75-2.75 2.75zm0-4c-.69 0-1.25.56-1.25 1.25s.56 1.25 1.25 1.25 1.25-.56 1.25-1.25-.56-1.25-1.25-1.25z" fill="url(#linear-gradient)"/></svg>