<svg width="512" height="458" viewBox="0 0 512 458" fill="none" xmlns="http://www.w3.org/2000/svg">
<path d="M503.392 363.492L310.198 31.441C298.842 11.923 278.581 0.27002 256 0.27002C233.419 0.27002 213.158 11.923 201.802 31.441L8.60906 363.492C-2.81294 383.123 -2.87194 406.598 8.45106 426.287C19.7741 445.976 40.0941 457.729 62.8061 457.729H449.193C471.906 457.729 492.226 445.975 503.549 426.286C514.873 406.598 514.813 383.124 503.392 363.492ZM488.019 417.355C479.931 431.418 465.417 439.815 449.194 439.815H62.8061C46.5831 439.815 32.0691 431.419 23.9811 417.356C15.8931 403.293 15.9351 386.525 24.0931 372.503L217.287 40.451C225.399 26.509 239.87 18.186 256 18.186C272.13 18.186 286.601 26.509 294.713 40.451L487.907 372.502C496.064 386.525 496.107 403.292 488.019 417.355Z" fill="url(#paint0_linear_160_3610)"/>
<path d="M256 323.365C231.304 323.365 211.212 343.457 211.212 368.153C211.212 392.85 231.304 412.941 256 412.941C280.696 412.941 300.788 392.849 300.788 368.153C300.788 343.457 280.696 323.365 256 323.365ZM256 395.026C241.182 395.026 229.127 382.97 229.127 368.152C229.127 353.334 241.182 341.279 256 341.279C270.818 341.279 282.873 353.334 282.873 368.152C282.873 382.971 270.818 395.026 256 395.026Z" fill="url(#paint1_linear_160_3610)"/>
<path d="M256 300.97C278.227 300.97 296.309 282.888 296.309 260.661V153.169C296.309 130.942 278.227 112.86 256 112.86C233.773 112.86 215.691 130.942 215.691 153.169V260.661C215.691 282.888 233.773 300.97 256 300.97ZM233.606 153.169C233.606 140.821 243.652 130.775 256 130.775C268.348 130.775 278.394 140.821 278.394 153.169V260.661C278.394 273.009 268.348 283.055 256 283.055C243.652 283.055 233.606 273.009 233.606 260.661V153.169Z" fill="url(#paint2_linear_160_3610)"/>
<defs>
<linearGradient id="paint0_linear_160_3610" x1="-81.9389" y1="408.371" x2="634.319" y2="350.878" gradientUnits="userSpaceOnUse">
<stop stop-color="#1EBEA5"/>
<stop offset="0.247103" stop-color="#00B5C4"/>
<stop offset="0.50775" stop-color="#00A8E6"/>
<stop offset="0.72982" stop-color="#0096FD"/>
<stop offset="0.956406" stop-color="#157AFB"/>
</linearGradient>
<linearGradient id="paint1_linear_160_3610" x1="196.876" y1="403.276" x2="322.35" y2="394.277" gradientUnits="userSpaceOnUse">
<stop stop-color="#1EBEA5"/>
<stop offset="0.247103" stop-color="#00B5C4"/>
<stop offset="0.50775" stop-color="#00A8E6"/>
<stop offset="0.72982" stop-color="#0096FD"/>
<stop offset="0.956406" stop-color="#157AFB"/>
</linearGradient>
<linearGradient id="paint2_linear_160_3610" x1="202.789" y1="280.674" x2="316.188" y2="277.189" gradientUnits="userSpaceOnUse">
<stop stop-color="#1EBEA5"/>
<stop offset="0.247103" stop-color="#00B5C4"/>
<stop offset="0.50775" stop-color="#00A8E6"/>
<stop offset="0.72982" stop-color="#0096FD"/>
<stop offset="0.956406" stop-color="#157AFB"/>
</linearGradient>
</defs>
</svg>
